# xmcd CD database file
#
# Track frame offsets:
#	150
#	30577
#	58557
#	81867
#	100985
#	130552
#	159970
#	179097
#	217037
#	237200
#
# Disc length: 3475 seconds
#
# Revision: 1
# Processed by: cddbd v1.5.1PL0 Copyright (c) Steve Scherf et al.
# Submitted via: CDex 1.51
#
DISCID=7f0d910a
DTITLE=Hiroko Kokubu - New York Uncovered
DYEAR=2004
DGENRE=Jazz
TTITLE0=Besame Mucho
TTITLE1=Stella By Starlight
TTITLE2=Key Largo
TTITLE3=Tico Tico
TTITLE4=Malaika
TTITLE5=Antonio's Song
TTITLE6=Ju-ge-mu
TTITLE7=Three Views Of A Secret
TTITLE8=Miagete Goran Yoru No Hoshi Wo
TTITLE9=Only Trust Your Heart
EXTD=YEAR: 2004
EXTT0=
EXTT1=
EXTT2=
EXTT3=
EXTT4=
EXTT5=
EXTT6=
EXTT7=
EXTT8=
EXTT9=
PLAYORDER=
